<svg viewBox="0 0 64 64" xml:space="preserve" xmlns="http://www.w3.org/2000/svg"><g fill="#546fff" class="fill-241f20"><path d="M36.256 41.437c-2.451 3.992-7.285 3.291-8.825.14-4.063 4.414-7.377-.145-7.377-.145.744 5.889 5.768 10.439 11.86 10.439 6.19 0 11.28-4.701 11.891-10.73 0 0-5.448 3.167-7.549.296z"></path><path d="M6.888 18.287v44.036c0 .926.782 1.674 1.751 1.674h46.722c.967 0 1.75-.748 1.75-1.674V18.287H6.888zM31.93 54.794c-7.821 0-14.161-6.339-14.161-14.16 0-7.819 6.339-14.16 14.161-14.16 7.82 0 14.16 6.34 14.16 14.16 0 7.821-6.34 14.16-14.16 14.16zM55.361.004H8.639c-.969 0-1.751.809-1.751 1.808v13.259h50.223V1.812c0-.999-.783-1.808-1.75-1.808zM16.13 10.049a2.511 2.511 0 1 1 0-5.023 2.511 2.511 0 0 1 0 5.023zm8.292 0a2.512 2.512 0 1 1 .002-5.024 2.512 2.512 0 0 1-.002 5.024z"></path></g></svg>