<svg xmlns="http://www.w3.org/2000/svg" xmlns:xlink="http://www.w3.org/1999/xlink" viewBox="0,0,256,256" width="48px" height="48px"><g fill="#fa5252" fill-rule="nonzero" stroke="none" stroke-width="1" stroke-linecap="butt" stroke-linejoin="miter" stroke-miterlimit="10" stroke-dasharray="" stroke-dashoffset="0" font-family="none" font-weight="none" font-size="none" text-anchor="none" style="mix-blend-mode: normal"><g transform="scale(5.33333,5.33333)"><path d="M24,4c-3.29586,0 -6,2.70413 -6,6h-10.5c-0.54095,-0.00765 -1.04412,0.27656 -1.31683,0.74381c-0.27271,0.46725 -0.27271,1.04514 0,1.51238c0.27271,0.46725 0.77588,0.75146 1.31683,0.74381h2.5v25.5c0,3.033 2.467,5.5 5.5,5.5h17c3.033,0 5.5,-2.467 5.5,-5.5v-25.5h2.5c0.54095,0.00765 1.04412,-0.27656 1.31683,-0.74381c0.27271,-0.46725 0.27271,-1.04514 0,-1.51238c-0.27271,-0.46725 -0.77588,-0.75146 -1.31683,-0.74381h-10.5c0,-3.29587 -2.70414,-6 -6,-6zM24,7c1.67413,0 3,1.32587 3,3h-6c0,-1.67413 1.32587,-3 3,-3zM19.5,18c0.828,0 1.5,0.672 1.5,1.5v15c0,0.828 -0.672,1.5 -1.5,1.5c-0.828,0 -1.5,-0.672 -1.5,-1.5v-15c0,-0.828 0.672,-1.5 1.5,-1.5zM28.5,18c0.828,0 1.5,0.672 1.5,1.5v15c0,0.828 -0.672,1.5 -1.5,1.5c-0.828,0 -1.5,-0.672 -1.5,-1.5v-15c0,-0.828 0.672,-1.5 1.5,-1.5z"></path></g></g></svg>